<svg xmlns="http://www.w3.org/2000/svg" viewBox="0 0 568.85 109.24">
  <path stroke-dashoffset="447.92" stroke-dasharray="447.92" d="M16,24.44V92H2.6V8H75V92H61.52V24.44H16Z"
        transform="translate(-2.1 -1.5)" fill="none" stroke="currentColor">
    <animate begin="indefinite"
             attributeName="stroke-dashoffset"
             from="0"
             to="112"
             dur="400ms"
             fill="freeze"
    />
    <animate begin="indefinite"
             attributeName="stroke-dasharray"
             from="0 112"
             to="112 0"
             dur="400ms"
             fill="freeze"/>
  </path>
  <path
    stroke-dashoffset="558.73" stroke-dasharray="558.73"
    d="M148.76,5.6c32.88,0,59.52,19.92,59.52,44.4s-26.64,44.4-59.52,44.4S89.24,74.48,89.24,50,115.88,5.6,148.76,5.6Zm0,72.12c24.48,0,44.4-12.36,44.4-27.72s-19.92-27.84-44.4-27.84C124,22.16,104,34.52,104,50S124,77.72,148.76,77.72Z"
    fill="none" stroke="currentColor" transform="translate(-2.1 -1.5)">
    <animate begin="indefinite"
             attributeName="stroke-dashoffset"
             from="0"
             to="230"
             dur="400ms"
             fill="freeze"/>
    <animate begin="indefinite"
             attributeName="stroke-dasharray"
             from="0 230"
             to="230 0"
             dur="400ms"
             fill="freeze"/>
  </path>
  <path
    stroke-dashoffset="516.39" stroke-dasharray="516.39"
    d="M287.36,8V24.44H236v14.4h25.32c25.44,0,34,11.16,34,26.52,0,15.6-8.52,26.64-34,26.64H222.56V8h64.8ZM256.88,76.52c15.12,0,23.52-2,23.52-11.52S272,54.44,256.88,54.44H236V76.52h20.88Z"
    transform="translate(-2.1 -1.5)" fill="none" stroke="currentColor">
    <animate begin="indefinite"
             attributeName="stroke-dashoffset"
             from="0"
             to="258"
             dur="400ms"
             fill="freeze"/>
    <animate begin="indefinite"
             attributeName="stroke-dasharray"
             from="0 258"
             to="258 0"
             dur="400ms"
             fill="freeze"/>
  </path>
  <path stroke-dashoffset="464.64" stroke-dasharray="464.64"
        d="M371.47,8V24.44H320.84V41.6h33.6V58h-33.6V75.56h50.64V92H307.4V8h64.08Z" transform="translate(-2.1 -1.5)"
        fill="none" stroke="currentColor">
    <animate begin="indefinite"
             attributeName="stroke-dashoffset"
             from="0"
             to="116"
             dur="400ms"
             fill="freeze"/>
    <animate begin="indefinite"
             attributeName="stroke-dasharray"
             from="0 116"
             to="116 0"
             dur="400ms"
             fill="freeze"/>
  </path>
  <path
    stroke-dashoffset="538.91" stroke-dasharray="538.91"
    d="M382.39,110.24V75.56h7.44c4.56-4.68,7.8-18.36,8.76-56L399,8h48.6V75.56h10v34.68H442.87V92H397v18.24H382.39Zm51.72-34.68V24.44H411.55v3.12c-0.48,22.44-3.24,37.68-7.2,48h29.76Z"
    transform="translate(-2.1 -1.5)" fill="none" stroke="currentColor">
    <animate begin="indefinite"
             attributeName="stroke-dashoffset"
             from="0"
             to="270"
             dur="400ms"
             fill="freeze"/>
    <animate begin="indefinite"
             attributeName="stroke-dasharray"
             from="0 270"
             to="270 0"
             dur="400ms"
             fill="freeze"/>
  </path>
  <path
    stroke-dashoffset="432.97" stroke-dasharray="432.97"
    d="M463.75,92l28-84h27.12l28.08,84H533.47l-7.8-23.52h-37.8L480.07,92H463.75Zm56.64-40L507,11.84,493.51,52h26.88Z"
    transform="translate(-2.1 -1.5)" fill="none" stroke="currentColor">
    <animate begin="indefinite"
             attributeName="stroke-dashoffset"
             from="0"
             to="216"
             dur="400ms"
             fill="freeze"/>
    <animate begin="indefinite"
             attributeName="stroke-dasharray"
             from="0 216"
             to="216 0"
             dur="400ms"
             fill="freeze"/>
  </path>
  <path
    stroke-dashoffset="217.65" stroke-dasharray="217.65"
    d="M554.12,70.4L555.55,2H569l1.44,68.4H554.12Zm8.28,6.36c4.8,0,8,3.24,8,8.16a8,8,0,1,1-16.08,0C554.35,80,557.59,76.76,562.39,76.76Z"
    transform="translate(-2.1 -1.5)" fill="none" stroke="currentColor">
    <animate begin="indefinite"
             attributeName="stroke-dashoffset"
             from="0"
             to="108"
             dur="400ms"
             fill="freeze"/>
    <animate begin="indefinite"
             attributeName="stroke-dasharray"
             from="0 108"
             to="108 0"
             dur="400ms"
             fill="freeze"/>
  </path>
</svg>
