<svg style="background: black; perspective: 1000" xmlns="http://www.w3.org/2000/svg" xmlns:xlink="http://www.w3.org/1999/xlink" viewBox="0 0 350 330">
  <g style="transform-origin: 50% 50%" id="airship">
    <animate begin="2.15s" dur="0.75s" attributeName="opacity" from="1" to="0" fill="freeze" />
    <g id="tail-back">
      <animateTransform attributeName="transform" type="translate" values="0, 0; 0, -2; 0, 0; 0, 2; 0, 0" dur="2s" repeatCount="indefinite" />
      <path d="M123.23,173.34h9.16a3.29,3.29,0,0,1,3.29,3.3v5.71a3.29,3.29,0,0,1-3.29,3.3H115.57a1.32,1.32,0,0,1-1.32-1.32v-2a9,9,0,0,1,9-9" fill="#068e4d"/>
      <path d="M123.23,173.34h9.16a3.29,3.29,0,0,1,3.29,3.3v5.71a3.29,3.29,0,0,1-3.29,3.3H115.57a1.32,1.32,0,0,1-1.32-1.32v-2A9,9,0,0,1,123.23,173.34Z" fill="none" stroke="#fff" stroke-linecap="round" stroke-linejoin="round" stroke-width="2"/>
      <path d="M123.23,207.39h9.16a3.29,3.29,0,0,0,3.29-3.3v-5.71a3.29,3.29,0,0,0-3.29-3.3H115.57a1.32,1.32,0,0,0-1.32,1.32v2a9,9,0,0,0,9,9" fill="#068e4d"/>
      <path d="M123.23,207.39h9.16a3.29,3.29,0,0,0,3.29-3.3v-5.71a3.29,3.29,0,0,0-3.29-3.3H115.57a1.32,1.32,0,0,0-1.32,1.32v2A9,9,0,0,0,123.23,207.39Z" fill="none" stroke="#fff" stroke-linecap="round" stroke-linejoin="round" stroke-width="2"/>
    </g>

    <g id="basket">
      <animateTransform attributeName="transform" type="scale" values="1 1; 1 0.96; 1 1; 1 0.99; 1 1" dur="2s" additive="sum" repeatCount="3" fill="freeze" />
      <animateTransform attributeName="transform" type="skewY" values="0; 2; 0; -0.5; 0" dur="2s" additive="sum" repeatCount="3" fill="freeze" />
      <path d="M175.44,249.28h48.36a13.27,13.27,0,0,0,13-10.65l3.74-18.32H172.36v25.89A3.09,3.09,0,0,0,175.44,249.28Z" fill="none" stroke="#fff" stroke-linecap="round" stroke-linejoin="round" stroke-width="2"/>
      <path d="M235.79,241.69h-9.22a8.31,8.31,0,0,1-8.28-8.31V220.31" fill="none" stroke="#fff" stroke-linecap="round" stroke-miterlimit="10" stroke-width="2"/>
      <path d="M204.25,231.88h-2.05a3.45,3.45,0,0,0-3.43,3.45v2.92a3.45,3.45,0,0,0,3.43,3.45h2.05a3.45,3.45,0,0,0,3.43-3.45v-2.92A3.44,3.44,0,0,0,204.25,231.88Z" fill="none" stroke="#fff" stroke-linecap="round" stroke-linejoin="round" stroke-width="2">
        <animate attributeName="opacity" begin="2.25s" from="1" to="0" fill="freeze" dur="50ms" />
      </path>
      <path d="M185.64,231.88h-2.05a3.45,3.45,0,0,0-3.43,3.45v2.92a3.45,3.45,0,0,0,3.43,3.45h2.05a3.45,3.45,0,0,0,3.43-3.45v-2.92A3.45,3.45,0,0,0,185.64,231.88Z" fill="none" stroke="#fff" stroke-linecap="round" stroke-linejoin="round" stroke-width="2"/>
    </g>

    <path d="M205,227.08c43.38,0,74.86-15.55,74.86-37s-31.48-37-74.86-37c-27.94,0-55.36,13.53-73.46,24.87a14.3,14.3,0,0,0,0,24.21c18.09,11.33,45.52,24.87,73.46,24.87" fill="#068e4d"/>
    <path d="M205,227.08c43.38,0,74.86-15.55,74.86-37s-31.48-37-74.86-37c-27.94,0-55.36,13.53-73.46,24.87a14.3,14.3,0,0,0,0,24.21C149.63,213.54,177.06,227.08,205,227.08Z" fill="none" stroke="#fff" stroke-width="2"/>
    <path d="M127.612 183.901C126.546 185.908 126.028 188.159 126.11 190.43C126.11 190.3 278.63 190.19 278.63 190.07C278.63 170.32 249.8 154.32 204.99 154.32C176.76 154.32 148.92 168.5 132.18 179C130.253 180.204 128.678 181.894 127.612 183.901Z" fill="#36E69A"/>
    <path d="M132.18,195.12c16.74,4.27,44.58,10,72.81,10,44.14,0,72.75-6.32,73.6-14.18-0.86,19.34-29.45,34.86-73.6,34.86-28.23,0-56.07-14.19-72.81-24.68a12.88,12.88,0,0,1-6-10.18c0.26,1.61,2.26,3.18,6,4.14" fill="#068e4d"/>
    <path d="M132.18 186.12C148.92 181.85 176.76 176.12 204.99 176.12C249.52 176.12 278.25 182.55 278.6 190.5C278.6 190.67 278.6 190.84 278.6 191.01C277.75 198.87 249.15 205.18 205 205.18C176.77 205.18 148.93 199.42 132.19 195.18C128.4 194.18 126.4 192.65 126.19 191.05V190.54C126.32 188.85 128.34 187.18 132.29 186.17" fill="#25b774">
      <animate repeatCount="2" attributeName="d" dur="2s"
        values="
        M132.18 186.12C148.92 181.85 176.76 176.12 204.99 176.12C249.52 176.12 278.25 182.55 278.6 190.5C278.6 190.67 278.6 190.84 278.6 191.01C277.75 198.87 249.15 205.18 205 205.18C176.77 205.18 148.93 199.42 132.19 195.18C128.4 194.18 126.4 192.65 126.19 191.05V190.54C126.32 188.85 128.34 187.18 132.29 186.17;
        M132.18 186.12C148.92 181.85 176.77 181.5 205 181.5C249.53 181.5 278.25 182.55 278.6 190.5C278.6 190.67 278.6 190.84 278.6 191.01C277.75 198.87 249.15 207.5 205 207.5C176.77 207.5 148.93 199.42 132.19 195.18C128.4 194.18 126.4 192.65 126.19 191.05V190.54C126.32 188.85 128.34 187.18 132.29 186.17;
        M132.18 186.12C148.92 181.85 176.76 176.12 204.99 176.12C249.52 176.12 278.25 182.55 278.6 190.5C278.6 190.67 278.6 190.84 278.6 191.01C277.75 198.87 249.15 205.18 205 205.18C176.77 205.18 148.93 199.42 132.19 195.18C128.4 194.18 126.4 192.65 126.19 191.05V190.54C126.32 188.85 128.34 187.18 132.29 186.17;
        M132.18 186.12C148.92 181.85 176.77 172 205 172C249.53 172 278.25 182.55 278.6 190.5C278.6 190.67 278.6 190.84 278.6 191.01C277.75 198.87 249.15 200.5 205 200.5C176.77 200.5 148.93 199.42 132.19 195.18C128.4 194.18 126.4 192.65 126.19 191.05V190.54C126.32 188.85 128.34 187.18 132.29 186.17;
        M132.18 186.12C148.92 181.85 176.76 176.12 204.99 176.12C249.52 176.12 278.25 182.55 278.6 190.5C278.6 190.67 278.6 190.84 278.6 191.01C277.75 198.87 249.15 205.18 205 205.18C176.77 205.18 148.93 199.42 132.19 195.18C128.4 194.18 126.4 192.65 126.19 191.05V190.54C126.32 188.85 128.34 187.18 132.29 186.17
        "/>
    </path>

    <g id="tail-front">
      <animateTransform attributeName="transform" type="translate" values="0, 0; 0, 2; 0, 0; 0, -2; 0, 0" dur="2s" repeatCount="indefinite" />
      <path d="M123.23,173.34h9.16a3.29,3.29,0,0,1,3.29,3.3v5.71a3.29,3.29,0,0,1-3.29,3.3H115.57a1.32,1.32,0,0,1-1.32-1.32v-2a9,9,0,0,1,9-9" fill="#068e4d"/>
      <path d="M123.23,173.34h9.16a3.29,3.29,0,0,1,3.29,3.3v5.71a3.29,3.29,0,0,1-3.29,3.3H115.57a1.32,1.32,0,0,1-1.32-1.32v-2A9,9,0,0,1,123.23,173.34Z" fill="none" stroke="#fff" stroke-linecap="round" stroke-linejoin="round" stroke-width="2"/>
      <path d="M123.23,207.39h9.16a3.29,3.29,0,0,0,3.29-3.3v-5.71a3.29,3.29,0,0,0-3.29-3.3H115.57a1.32,1.32,0,0,0-1.32,1.32v2a9,9,0,0,0,9,9" fill="#068e4d"/>
      <path d="M123.23,207.39h9.16a3.29,3.29,0,0,0,3.29-3.3v-5.71a3.29,3.29,0,0,0-3.29-3.3H115.57a1.32,1.32,0,0,0-1.32,1.32v2A9,9,0,0,0,123.23,207.39Z" fill="none" stroke="#fff" stroke-linecap="round" stroke-linejoin="round" stroke-width="2"/>
    </g>
  </g>

  <g style="opacity: 0" id="window">
    <animate attributeName="opacity" begin="2.25s" from="0" to="1" fill="freeze" dur="50ms" />
    <path d="M204.25 231.88H202.2C201.288 231.885 200.416 232.251 199.773 232.898C199.131 233.544 198.77 234.418 198.77 235.33V238.25C198.77 239.162 199.131 240.036 199.773 240.682C200.416 241.329 201.288 241.695 202.2 241.7H204.25C205.162 241.695 206.034 241.329 206.677 240.682C207.319 240.036 207.68 239.162 207.68 238.25V235.33C207.681 234.878 207.594 234.431 207.422 234.013C207.25 233.595 206.998 233.215 206.68 232.895C206.361 232.574 205.983 232.32 205.566 232.146C205.149 231.972 204.702 231.881 204.25 231.88V231.88Z" fill="none" stroke="#fff" stroke-linecap="round" stroke-linejoin="round" stroke-width="2">
      <animate attributeName="d" fill="freeze" begin="2.25s" dur="500ms" values="
          M204.25 231.88H202.2C201.288 231.885 200.416 232.251 199.773 232.898C199.131 233.544 198.77 234.418 198.77 235.33V238.25C198.77 239.162 199.131 240.036 199.773 240.682C200.416 241.329 201.288 241.695 202.2 241.7H204.25C205.162 241.695 206.034 241.329 206.677 240.682C207.319 240.036 207.68 239.162 207.68 238.25V235.33C207.681 234.878 207.594 234.431 207.422 234.013C207.25 233.595 206.998 233.215 206.68 232.895C206.361 232.574 205.983 232.32 205.566 232.146C205.149 231.972 204.702 231.881 204.25 231.88V231.88Z;
          M272.367 152H260.633C255.415 152.04 250.422 154.796 246.743 159.668C243.065 164.539 241 171.129 241 177.998V200.002C241 206.871 243.065 213.461 246.743 218.332C250.422 223.204 255.415 225.96 260.633 226H272.367C277.584 225.96 282.578 223.204 286.257 218.332C289.935 213.461 292 206.871 292 200.002V177.998C292.007 174.594 291.506 171.221 290.523 168.072C289.541 164.923 288.096 162.06 286.273 159.646C284.45 157.232 282.284 155.314 279.898 154.002C277.512 152.69 274.953 152.01 272.367 152V152Z"/>
    </path>
  </g>

  <g style="opacity: 0; transform-origin: 50% 50%;" id="cloud-bottom">
    <animate dur="2s" attributeName="opacity" values="0; 1; 1; 0" keyTimes="0; 0.15; 0.8; 1" fill="freeze" />
    <animateTransform attributeName="transform" type="translate" from="250 0" to="0 0" dur="2s" additive="sum" />
    <g style="transform-origin: 50% 50%;">
      <animateTransform attributeName="transform" type="translate" from="-20 0" to="0 0" dur="2s" />
      <line x1="68.95" y1="107.8" x2="131.86" y2="107.8" fill="none" stroke="#fff" stroke-linecap="round" stroke-miterlimit="10" stroke-width="2"/>
    </g>
    <path d="M41.77,97.54H77.06a12.4,12.4,0,1,1,24.8,0h17.93" fill="none" stroke="#fff" stroke-linecap="round" stroke-miterlimit="10" stroke-width="2"/>
  </g>
  <g style="opacity: 0" id="cloud-top">
    <animate begin="1s" dur="2s" attributeName="opacity" values="0; 1; 1; 0" keyTimes="0; 0.15; 0.8; 1" fill="freeze" />
    <animateTransform attributeName="transform" type="translate" begin="1s" from="100 0" to="-250 0" dur="3s" />
    <line x1="258.96" y1="93.19" x2="298.74" y2="93.19" fill="none" stroke="#fff" stroke-linecap="round" stroke-miterlimit="10" stroke-width="2"/>
    <path d="M278.75,82.91H251.39a12.4,12.4,0,1,0-24.8,0H208.65" fill="none" stroke="#fff" stroke-linecap="round" stroke-miterlimit="10" stroke-width="2"/>
    <line x1="287.01" y1="82.91" x2="309.21" y2="82.91" fill="none" stroke="#fff" stroke-linecap="round" stroke-miterlimit="10" stroke-width="2"/>
  </g>
  <g id="wind">
    <animate begin="2.15s" dur="0.75s" attributeName="opacity" from="1" to="0" fill="freeze" />
    <line x1="106.25" y1="179.49" x2="84.05" y2="179.49" fill="none" stroke="#fff" stroke-linecap="round" stroke-miterlimit="10" stroke-width="2">
      <animate attributeName="x2" values="89; 85; 88; 85; 91; 84; 89" dur="1s" repeatCount="indefinite"  />
    </line>
    <line x1="106.25" y1="201.23" x2="84.05" y2="201.23" fill="none" stroke="#fff" stroke-linecap="round" stroke-miterlimit="10" stroke-width="2">
      <animate attributeName="x2" values="85; 89; 84; 88; 85; 91; 84; 85" dur="1s" repeatCount="indefinite"  />
    </line>
    <line x1="106.25" y1="190.98" x2="68.77" y2="190.98" fill="none" stroke="#fff" stroke-linecap="round" stroke-miterlimit="10" stroke-width="2">
      <animate attributeName="x2" values="69; 75; 71; 76; 70; 74; 69" dur="1s" repeatCount="indefinite"  />
    </line>
  </g>
  <g id="rock">
    <path d="M289.94,327.88H244.88L212.8,296.58a1.89,1.89,0,0,0-2.44,0l-10.2,10.23a1.72,1.72,0,0,1-2.25,0l-19-20.17a2.4,2.4,0,0,0-3.1,0l-26.42,25.64a1.71,1.71,0,0,1-2.25,0l-2.63-2.92a1.71,1.71,0,0,0-2.31,0L124.63,329H80.78" fill="none" stroke="#fff" stroke-linecap="round" stroke-miterlimit="10" stroke-width="2">
      <animate attributeName="d" dur="0.5s" begin="2s" fill="freeze"
          values="
          M289.94 327.88H244.88L212.8 296.58C212.459 296.292 212.027 296.134 211.58 296.134C211.133 296.134 210.701 296.292 210.36 296.58L200.16 306.81C199.847 307.08 199.448 307.229 199.035 307.229C198.622 307.229 198.223 307.08 197.91 306.81L178.91 286.64C178.477 286.273 177.928 286.072 177.36 286.072C176.792 286.072 176.243 286.273 175.81 286.64L149.39 312.28C149.078 312.552 148.679 312.702 148.265 312.702C147.851 312.702 147.452 312.552 147.14 312.28L144.51 309.36C144.195 309.071 143.783 308.911 143.355 308.911C142.927 308.911 142.515 309.071 142.2 309.36L124.63 329H80.78;
          M289.94 327.88H244.88L216.5 327C216.159 326.712 211.447 327 211 327C210.553 327 206.841 326.712 206.5 327L201.5 328.5C201.187 328.77 197.913 329 197.5 329C197.087 329 195.313 329.27 195 329L184.5 327.5C184.067 327.133 174.568 326 174 326C173.432 326 169.933 326.133 169.5 326.5L156 328C155.688 328.272 149.414 328.5 149 328.5C148.586 328.5 146.312 328.772 146 328.5L144.5 328C144.185 327.711 142.428 327.5 142 327.5C141.572 327.5 139.315 327.711 139 328L124.63 329H80.78"
      />
      <animate begin="2.25s" dur="0.25s" attributeName="opacity" from="1" to="0" fill="freeze" />
    </path>
    <path d="M289.94,328H200.15c-0.86,0-1.56,0-2.25,0h-19c-1.5,0-2.23,0-3.1,0h-32.3c-1.09,0-1.66,0-2.31,0H80.78" fill="none" stroke="#fff" stroke-linecap="round" stroke-miterlimit="10" stroke-width="2"/>
  </g>
</svg>
